<?xml version="1.0" encoding="UTF-8" standalone="no"?>
<!-- Created with Inkscape (http://www.inkscape.org/) -->

<svg
   xmlns:dc="http://purl.org/dc/elements/1.1/"
   xmlns:cc="http://creativecommons.org/ns#"
   xmlns:rdf="http://www.w3.org/1999/02/22-rdf-syntax-ns#"
   xmlns:svg="http://www.w3.org/2000/svg"
   xmlns="http://www.w3.org/2000/svg"
   xmlns:sodipodi="http://sodipodi.sourceforge.net/DTD/sodipodi-0.dtd"
   xmlns:inkscape="http://www.inkscape.org/namespaces/inkscape"
   width="25.705948mm"
   height="26.684944mm"
   viewBox="0 0 91.084067 94.552955"
   id="svg4824"
   version="1.1"
   inkscape:version="0.91 r"
   sodipodi:docname="xoia4_alleen_logo.svg">
  <defs
     id="defs4826" />
  <sodipodi:namedview
     id="base"
     pagecolor="#ffffff"
     bordercolor="#666666"
     borderopacity="1.0"
     inkscape:pageopacity="0.0"
     inkscape:pageshadow="2"
     inkscape:zoom="0.7"
     inkscape:cx="-520.3888"
     inkscape:cy="6.9383894"
     inkscape:document-units="px"
     inkscape:current-layer="layer1"
     showgrid="true"
     inkscape:window-width="1600"
     inkscape:window-height="847"
     inkscape:window-x="0"
     inkscape:window-y="0"
     inkscape:window-maximized="1"
     fit-margin-top="0"
     fit-margin-left="0"
     fit-margin-right="0"
     fit-margin-bottom="0">
    <inkscape:grid
       type="xygrid"
       id="grid5372"
       originx="-181.17977"
       originy="-613.36882" />
  </sodipodi:namedview>
  <metadata
     id="metadata4829">
    <rdf:RDF>
      <cc:Work
         rdf:about="">
        <dc:format>image/svg+xml</dc:format>
        <dc:type
           rdf:resource="http://purl.org/dc/dcmitype/StillImage" />
        <dc:title></dc:title>
      </cc:Work>
    </rdf:RDF>
  </metadata>
  <g
     inkscape:label="Layer 1"
     inkscape:groupmode="layer"
     id="layer1"
     transform="translate(-181.17977,-344.44047)">
    <path
       style="fill:#000000;fill-opacity:1;stroke:#000000;stroke-width:1.32388508;stroke-miterlimit:4;stroke-dasharray:none;stroke-opacity:1"
       id="path5459"
       d="m 227.4124,375.35011 c 1.70398,-0.25868 3.41533,-0.46368 5.12523,-0.68381 2.98677,-0.37097 5.99441,-0.49844 8.99792,-0.63046 1.13736,0.011 2.28938,-0.19182 3.42356,-0.0337 0.48892,0.0682 0.68673,0.14178 1.15587,0.27574 1.26282,0.41508 2.31435,1.23761 3.3154,2.10483 0.91236,0.82027 1.57047,1.88712 2.09149,3.00366 0.32178,0.77263 0.45127,1.59356 0.49212,2.42681 -0.0342,1.07617 -0.69127,1.89274 -1.35916,2.65326 -0.98531,1.04791 -2.14124,1.89493 -3.26595,2.77199 -1.19534,0.87745 -2.21091,1.95754 -3.17203,3.09211 -0.93635,1.09912 -1.57316,2.40735 -2.10605,3.75168 -0.35868,1.02971 -0.57235,2.11365 -0.4866,3.2079 0.25287,1.17629 1.27815,1.55443 2.26744,1.93694 2.53678,0.84569 5.11486,1.54986 7.68543,2.27665 2.52142,0.66201 5.05898,1.32408 7.46354,2.36899 0.40229,0.17483 0.79296,0.37688 1.18945,0.56533 2.37063,1.20738 4.2759,3.11242 6.18927,4.95179 1.67016,1.58491 3.20666,3.3291 4.37171,5.34361 0.48559,0.84162 0.72797,1.75873 0.80347,2.72584 0.085,1.1293 -0.50701,1.8155 -1.26253,2.54082 -1.97327,1.57569 -4.16191,2.87797 -6.42249,3.96502 -0.91201,0.43857 -1.59365,0.6966 -2.53334,1.077 -2.68896,1.12752 -5.44671,2.07134 -8.21536,2.96598 -2.14274,0.59462 -4.25936,1.28522 -6.42719,1.78026 -1.64262,0.37511 -1.83931,0.38583 -3.49877,0.67142 -2.56847,0.36425 -5.16164,0.47964 -7.74226,0.71603 -0.24651,0.0226 -3.86798,0.40977 -4.11029,0.43562 -3.68615,0.33127 -7.35532,0.82821 -11.04215,1.15207 -2.95626,0.28655 -5.87266,0.88247 -8.80444,1.35014 -2.65897,0.54511 -5.36517,0.78998 -8.03224,1.27264 -1.87696,0.3626 -3.76484,0.65802 -5.6498,0.97205 -1.37449,0.24173 -2.70728,0.67997 -4.00595,1.19646 -1.06272,0.54224 -3.18126,1.84627 1.5188,-0.93356 0,0 -3.1558,1.25614 -3.1558,1.25614 l 0,0 c 1.40077,-0.8383 2.78167,-1.80101 4.28577,-2.46042 1.3033,-0.47835 2.63074,-0.90177 4.00321,-1.10925 1.86245,-0.30532 3.72909,-0.5828 5.58569,-0.92494 2.65961,-0.43256 5.3441,-0.70514 7.9899,-1.2361 2.92135,-0.48202 5.83601,-1.04344 8.7861,-1.30664 3.65872,-0.31105 7.30397,-0.76361 10.96073,-1.09749 0.3199,-0.0341 3.80721,-0.40652 4.12433,-0.43589 2.59018,-0.23982 5.19312,-0.37195 7.7673,-0.7717 1.65375,-0.29467 1.85356,-0.30649 3.49183,-0.69385 2.17534,-0.51436 4.30367,-1.2104 6.45223,-1.82811 2.76972,-0.91085 5.52993,-1.86457 8.22151,-3.00133 1.01013,-0.4219 1.5637,-0.63198 2.53861,-1.1212 0.38285,-0.1921 1.48237,-0.85994 1.13175,-0.61077 -0.5757,0.40913 -1.19236,0.75509 -1.81003,1.0928 -0.28958,0.15834 0.55467,-0.36071 0.82385,-0.5536 0.22946,-0.16443 0.44751,-0.34518 0.67127,-0.51776 0.67517,-0.58477 1.38334,-1.2292 1.31923,-2.22089 -0.0287,-0.92507 -0.21146,-1.81161 -0.63511,-2.63843 -1.07264,-2.04864 -2.55849,-3.75149 -4.21873,-5.31838 -1.89679,-1.81186 -3.79554,-3.67536 -6.14342,-4.85745 -2.74028,-1.29625 -5.60551,-2.24815 -8.54441,-2.94357 -2.63193,-0.71256 -5.2772,-1.37877 -7.88637,-2.17607 -1.17982,-0.46672 -2.16653,-0.87532 -2.50908,-2.23956 -0.11144,-1.14927 0.0982,-2.28457 0.45754,-3.37518 0.5184,-1.37585 1.15478,-2.72398 2.07752,-3.86337 0.94923,-1.1554 1.94617,-2.26968 3.14408,-3.15872 1.10831,-0.87008 2.25887,-1.69251 3.25456,-2.70314 0.6324,-0.68002 1.3105,-1.40157 1.4293,-2.37996 -0.0313,-0.79085 -0.1078,-1.58084 -0.39998,-2.32192 -0.47774,-1.08436 -1.10348,-2.10864 -1.98672,-2.891 -0.97826,-0.83372 -2.00781,-1.61817 -3.2527,-1.96655 -0.4804,-0.12439 -0.60937,-0.17459 -1.10867,-0.23428 -1.08963,-0.13031 -2.19324,0.007 -3.28571,-0.0217 -3.00002,0.0782 -6.002,0.23055 -8.97748,0.65441 -1.78459,0.25161 -3.56417,0.52957 -5.34605,0.79616 0,0 2.78985,-2.0914 2.78985,-2.0914 z"
       inkscape:connector-curvature="0" />
    <path
       style="fill:#000000;fill-opacity:1;stroke:#000000;stroke-width:1.32388508;stroke-miterlimit:4;stroke-dasharray:none;stroke-opacity:1"
       id="path5475"
       d="m 207.79848,375.72504 c -0.46643,-0.63971 -1.09676,-1.13515 -1.70539,-1.62356 -0.68364,-0.55819 -1.35233,-1.13804 -2.13667,-1.53984 -0.90745,-0.52644 -1.88703,-0.85572 -2.88475,-1.14395 -1.27455,-0.33734 -2.59007,-0.41777 -3.89922,-0.46804 -1.15454,-0.001 -2.31592,-0.0934 -3.46458,0.0462 -1.36666,0.24018 -2.71186,0.57 -4.01015,1.07205 -0.81041,0.3258 -1.63198,0.6217 -2.41838,1.00783 -0.25382,0.12466 -0.99196,0.54516 -0.75019,0.39723 3.11316,-1.90487 2.65646,-1.6083 1.58248,-0.85105 -1.14476,0.88382 -1.82983,2.05325 -2.42996,3.35964 -0.59188,1.29576 -0.73541,2.7169 -0.8252,4.12727 -0.0571,0.90923 -0.0659,1.83018 0.22146,2.7038 0.16661,0.50657 0.28473,0.67323 0.53723,1.13687 0.68414,1.1656 1.52243,1.87453 2.57885,2.64488 0.93186,0.68094 1.95756,1.19522 2.97789,1.71511 0.75885,0.36842 1.57065,0.60321 2.31662,0.99954 0.73722,0.40791 0.92701,0.75879 1.24788,1.52098 0.36362,0.88124 0.45663,1.83596 0.52233,2.78113 0.0632,0.9161 -0.16663,1.76355 -0.59404,2.55581 -0.39497,0.63171 -0.97113,1.09935 -1.55057,1.53951 -0.82224,0.58609 -1.40155,1.42797 -1.95145,2.27184 -0.79108,1.3359 -1.33842,2.80169 -1.78373,4.29232 -0.53957,2.10853 -0.90995,4.2454 -1.12639,6.41333 -0.0749,1.06105 -0.10061,2.1445 0.20434,3.17279 0.14278,0.48139 0.29001,0.78375 0.48788,1.23989 0.57855,1.20925 1.22982,2.38025 1.91405,3.52877 0.70094,1.14648 1.55297,2.18265 2.48351,3.13579 0.81117,0.7623 1.66213,1.48063 2.65534,1.97165 0.74105,0.34659 1.51561,0.6233 2.30197,0.83988 0.81614,0.26382 1.65726,0.39634 2.50742,0.46185 0.82409,0.0472 1.64986,0.046 2.47494,0.0433 0.77091,-0.004 1.54185,-0.004 2.31279,-0.006 0.7508,-0.002 1.5016,-0.002 2.25239,-0.001 0.74672,-0.01 1.48525,-0.13746 2.23118,-0.18331 0.86765,-0.13686 1.72792,-0.31639 2.58154,-0.52592 0.32178,-0.12102 0.69039,-0.0698 0.99906,-0.23577 0.0633,-0.0341 0.22528,-0.17872 0.16324,-0.1425 -2.95439,1.72417 -3.94777,1.76922 -2.80306,1.70858 0,0 3.08263,-1.63382 3.08263,-1.63382 l 0,0 c 0.39303,1.68092 -2.81788,2.11669 -4.1481,2.43027 -0.86379,0.19766 -1.73529,0.38022 -2.6145,0.48347 -0.74839,0.064 -1.49467,0.1852 -2.24755,0.16474 -0.75064,0.001 -1.50129,0.002 -2.25193,0.001 -0.77029,4.9e-4 -1.54056,0.006 -2.31083,0.002 -0.83,-0.004 -1.66151,-4.7e-4 -2.48943,-0.0691 -0.86348,-0.0862 -1.70932,-0.26074 -2.54132,-0.51731 -0.79731,-0.23981 -1.59459,-0.50258 -2.3315,-0.90353 -0.99061,-0.55289 -1.86711,-1.28682 -2.68368,-2.08423 -0.9316,-0.98746 -1.81083,-2.03436 -2.51404,-3.2106 -0.68377,-1.16599 -1.37337,-2.33239 -1.94236,-3.56387 -0.27872,-0.65446 -0.568,-1.31636 -0.6878,-2.02697 -0.14365,-0.85209 -0.0629,-1.73041 -0.013,-2.58517 0.1308,-1.13555 0.25802,-2.27062 0.45254,-3.39703 0.23034,-1.33383 0.16908,-0.83597 0.4327,-2.10937 0.0649,-0.31366 0.12055,-0.62928 0.18085,-0.94392 0.41786,-1.50686 0.95585,-2.98015 1.68731,-4.35755 0.53322,-0.85723 1.07994,-1.74012 1.86793,-2.37374 0.57356,-0.41887 1.14501,-0.84601 1.59788,-1.40792 0.46378,-0.71961 0.74534,-1.49386 0.70947,-2.37363 -0.0584,-0.90254 -0.13459,-1.81838 -0.49087,-2.65703 -0.32119,-0.70502 -0.4236,-0.93741 -1.13282,-1.3123 -0.7432,-0.37466 -1.53124,-0.64524 -2.27166,-1.0271 -1.03386,-0.52555 -2.06029,-1.06969 -2.99783,-1.76753 -1.08972,-0.80158 -1.94289,-1.58187 -2.65203,-2.77788 -0.75996,-1.39642 -0.96112,-2.41579 -0.83614,-4.02335 0.0876,-1.43857 0.19042,-2.90402 0.76527,-4.2391 0.11365,-0.25826 0.43734,-1.00827 0.57198,-1.25743 0.46517,-0.86078 1.08544,-1.62358 1.80103,-2.2728 2.24275,-1.68018 4.70734,-2.97259 7.30838,-3.92854 1.32598,-0.47965 2.69832,-0.80986 4.08818,-1.02397 1.15884,-0.0896 2.32275,-0.0363 3.48331,-3.8e-4 1.32689,0.07 2.65826,0.17219 3.94689,0.52983 1.0234,0.29334 2.0266,0.64775 2.95963,1.18043 0.78129,0.44288 1.46879,1.02761 2.1678,1.59484 0.63113,0.51285 1.265,1.03718 1.79549,1.66266 0,0 -2.96316,1.82736 -2.96316,1.82736 z"
       inkscape:connector-curvature="0" />
    <path
       style="fill:#000000;fill-opacity:1;stroke:#000000;stroke-width:1.32388508;stroke-miterlimit:4;stroke-dasharray:none;stroke-opacity:1"
       id="path5477"
       d="m 220.63611,414.12705 c -0.79839,-0.78395 -1.10457,-1.86021 -1.41095,-2.91569 -0.62859,-2.15439 -0.9942,-4.35777 -1.22268,-6.5909 -0.18499,-2.32874 -0.23229,-4.66681 -0.42478,-6.99473 -0.12929,-1.32025 -0.26134,-2.63764 -0.30445,-3.96423 -0.13999,-1.23387 -0.31376,-2.46176 -0.40184,-3.70148 -0.0709,-1.2118 -0.0815,-2.42592 -0.0973,-3.63941 -0.0133,-0.90238 -0.007,-1.8049 -0.0117,-2.70733 0.01,-0.96716 -0.007,-1.93503 0.0359,-2.90129 0.0874,-1.13833 0.21837,-2.27677 0.43299,-3.39745 0.25,-1.01803 0.58778,-2.01114 0.9008,-3.01007 0.25109,-0.92898 0.65624,-1.80281 1.01554,-2.69064 0.40867,-0.90715 0.83221,-1.80694 1.34782,-2.65481 0.61407,-0.94187 1.31631,-1.81668 1.99809,-2.70604 0.54383,-0.72683 1.1302,-1.41524 1.8033,-2.01651 0.58595,-0.48974 1.1877,-0.9586 1.78217,-1.43707 0.42446,-0.36049 0.21517,-0.17873 0.628,-0.54515 0,0 3.15162,-1.32122 3.15162,-1.32122 l 0,0 c -0.41054,0.37505 -0.20308,0.1888 -0.62239,0.55871 -0.58072,0.49357 -1.19102,0.94861 -1.77968,1.43209 -0.70639,0.56355 -1.31077,1.23455 -1.85982,1.96049 -0.6839,0.87875 -1.3769,1.75068 -2.00714,2.67199 -0.52884,0.82315 -0.94429,1.711 -1.36759,2.59542 -0.35319,0.88325 -0.7578,1.74995 -1.02762,2.66419 -0.30552,0.99556 -0.64975,1.97866 -0.92708,2.98296 -0.2353,1.10024 -0.36229,2.22508 -0.45011,3.34727 -0.0583,0.95683 -0.0132,1.91523 -0.0226,2.87349 -0.006,0.90592 -0.005,1.81192 -0.0133,2.71784 -0.005,1.20935 0.001,2.41966 0.0704,3.6273 0.086,1.24299 0.23954,2.47617 0.41668,3.70858 0.0441,1.33279 0.12812,2.66346 0.22205,3.99343 0.13365,2.336 0.20019,4.67636 0.37343,7.00988 0.22365,2.20371 0.5862,4.37783 1.27814,6.48294 0.31401,0.97213 0.59442,2.01733 1.41676,2.67289 0,0 -2.92326,1.89455 -2.92326,1.89455 z"
       inkscape:connector-curvature="0" />
    <path
       style="fill:#000000;fill-opacity:1;stroke:#000000;stroke-width:1.32388508;stroke-miterlimit:4;stroke-dasharray:none;stroke-opacity:1"
       id="path5481"
       d="m 218.37055,374.06857 c 0.032,-0.81619 0.0283,-1.63383 0.0237,-2.4506 -0.005,-0.62916 -0.0117,-1.25831 -0.015,-1.88748 0.007,-0.58122 -0.0142,-1.16252 0.0243,-1.74272 0.0797,-0.58957 0.14627,-1.17939 0.18037,-1.7737 -0.0133,-0.72115 0.10896,-1.41826 0.26448,-2.1172 0.15529,-0.63698 0.20085,-1.29175 0.2251,-1.94559 0.0157,-0.6368 0.035,-1.27142 -0.0455,-1.90403 -0.0879,-0.60989 -0.13565,-1.22334 -0.16076,-1.83898 -0.007,-0.59316 -0.10338,-1.1801 -0.2372,-1.75549 -0.15299,-0.76551 -0.45526,-1.48983 -0.69873,-2.22802 -0.22232,-0.72903 -0.39495,-1.47463 -0.54534,-2.22282 -0.0728,-0.65089 -0.37378,-1.23272 -0.57845,-1.84318 -0.18391,-0.60098 -0.33046,-1.2118 -0.49306,-1.81896 -0.15874,-0.57332 -0.47712,-1.06775 -0.88198,-1.48621 -0.0697,-0.0652 -0.13951,-0.13058 -0.20927,-0.19585 0,0 2.91525,-1.85916 2.91525,-1.85916 l 0,0 c 0.0733,0.0714 0.14642,0.14267 0.21961,0.21401 0.42643,0.47599 0.78777,1.01001 0.96595,1.63942 0.1568,0.60157 0.31069,1.20304 0.47946,1.8011 0.20508,0.62598 0.52253,1.22165 0.5992,1.88534 0.13517,0.73813 0.29924,1.47328 0.49773,2.19567 0.24956,0.74522 0.57992,1.46836 0.74672,2.23906 0.13833,0.59598 0.25843,1.20344 0.26679,1.81825 0.02,0.6048 0.0574,1.20947 0.1469,1.80813 0.0877,0.65246 0.0899,1.30439 0.061,1.96252 -0.0194,0.67197 -0.0339,1.34961 -0.19104,2.00596 -0.15957,0.67987 -0.33664,1.34872 -0.28214,2.05742 -0.0321,0.59828 -0.0776,1.1961 -0.17707,1.78706 -0.0687,0.56586 -0.0196,1.13936 -0.0314,1.70874 -0.002,0.63443 -0.01,1.26882 -0.015,1.90323 -0.005,0.80852 -0.01,1.61797 0.0234,2.42588 0,0 -3.07802,1.6182 -3.07802,1.6182 z"
       inkscape:connector-curvature="0" />
  </g>
</svg>
